<?xml version="1.0" encoding="UTF-8" standalone="no"?>
<!-- Created with Inkscape (http://www.inkscape.org/) -->

<svg
   width="5.4696112mm"
   height="59.657635mm"
   viewBox="0 0 5.4696112 59.657635"
   version="1.1"
   id="svg1"
   xmlns="http://www.w3.org/2000/svg"
   xmlns:svg="http://www.w3.org/2000/svg">
  <defs
     id="defs1">
    <clipPath
       clipPathUnits="userSpaceOnUse"
       id="clipPath978">
      <path
         d="M 0,2267.717 H 3401.575 V 0 H 0 Z"
         transform="translate(-958.04305,-1060.8236)"
         id="path978" />
    </clipPath>
    <clipPath
       clipPathUnits="userSpaceOnUse"
       id="clipPath980">
      <path
         d="M 0,2267.717 H 3401.575 V 0 H 0 Z"
         transform="translate(-958.04305,-1067.0744)"
         id="path980" />
    </clipPath>
    <clipPath
       clipPathUnits="userSpaceOnUse"
       id="clipPath982">
      <path
         d="M 0,2267.717 H 3401.575 V 0 H 0 Z"
         transform="translate(-958.04305,-1073.3252)"
         id="path982" />
    </clipPath>
    <clipPath
       clipPathUnits="userSpaceOnUse"
       id="clipPath984">
      <path
         d="M 0,2267.717 H 3401.575 V 0 H 0 Z"
         transform="translate(-958.04305,-1079.5757)"
         id="path984" />
    </clipPath>
    <clipPath
       clipPathUnits="userSpaceOnUse"
       id="clipPath986">
      <path
         d="M 0,2267.717 H 3401.575 V 0 H 0 Z"
         transform="translate(-958.04305,-1085.8265)"
         id="path986" />
    </clipPath>
    <clipPath
       clipPathUnits="userSpaceOnUse"
       id="clipPath988">
      <path
         d="M 0,2267.717 H 3401.575 V 0 H 0 Z"
         transform="translate(-958.04305,-1092.0771)"
         id="path988" />
    </clipPath>
    <clipPath
       clipPathUnits="userSpaceOnUse"
       id="clipPath990">
      <path
         d="M 0,2267.717 H 3401.575 V 0 H 0 Z"
         transform="translate(-958.04305,-1098.3279)"
         id="path990" />
    </clipPath>
    <clipPath
       clipPathUnits="userSpaceOnUse"
       id="clipPath992">
      <path
         d="M 0,2267.717 H 3401.575 V 0 H 0 Z"
         transform="translate(-958.04305,-1104.5786)"
         id="path992" />
    </clipPath>
    <clipPath
       clipPathUnits="userSpaceOnUse"
       id="clipPath994">
      <path
         d="M 0,2267.717 H 3401.575 V 0 H 0 Z"
         transform="translate(-958.04305,-1110.8294)"
         id="path994" />
    </clipPath>
    <clipPath
       clipPathUnits="userSpaceOnUse"
       id="clipPath996">
      <path
         d="M 0,2267.717 H 3401.575 V 0 H 0 Z"
         transform="translate(-958.04305,-1117.0802)"
         id="path996" />
    </clipPath>
    <clipPath
       clipPathUnits="userSpaceOnUse"
       id="clipPath745">
      <path
         d="M 0,2267.717 H 3401.575 V 0 H 0 Z"
         transform="translate(-955.93735,-1177.1051)"
         id="path745" />
    </clipPath>
  </defs>
  <g
     id="layer1"
     transform="translate(-185.73751,-122.23748)">
    <path
       id="path744"
       d="m 0,0 c -7.757,-79.035 -7.719,-87.548 0,-165.354 0.214,-2.16 3.92,-2.177 4.092,0 5.922,74.862 5.903,84.833 0,165.354 C 3.932,2.181 0.212,2.16 0,0 Z"
       style="fill:none;stroke:#1d1d1b;stroke-width:0.5;stroke-linecap:butt;stroke-linejoin:miter;stroke-miterlimit:10;stroke-dasharray:none;stroke-opacity:1"
       transform="matrix(0.35277776,0,0,-0.35277776,187.87266,122.89996)"
       clip-path="url(#clipPath745)" />
    <path
       id="path977"
       d="M 0,0 C -8.106,0.195 -7.744,18.751 0,18.557 7.795,18.361 7.795,6.446 0,6.251"
       style="fill:none;stroke:#0e0e0e;stroke-width:3;stroke-linecap:butt;stroke-linejoin:miter;stroke-miterlimit:10;stroke-dasharray:none;stroke-opacity:1"
       transform="matrix(0.35277776,0,0,-0.35277776,188.61551,163.92146)"
       clip-path="url(#clipPath978)" />
    <path
       id="path979"
       d="M 0,0 C -8.106,0.195 -7.744,18.751 0,18.557 7.795,18.361 7.795,6.446 0,6.251"
       style="fill:none;fill-opacity:1;stroke:#0e0e0e;stroke-width:3;stroke-linecap:butt;stroke-linejoin:miter;stroke-miterlimit:10;stroke-dasharray:none;stroke-opacity:1"
       transform="matrix(0.35277776,0,0,-0.35277776,188.61551,161.71635)"
       clip-path="url(#clipPath980)" />
    <path
       id="path981"
       d="M 0,0 C -8.106,0.195 -7.744,18.751 0,18.557 7.795,18.361 7.795,6.446 0,6.251"
       style="fill:none;fill-opacity:1;stroke:#0e0e0e;stroke-width:3;stroke-linecap:butt;stroke-linejoin:miter;stroke-miterlimit:10;stroke-dasharray:none;stroke-opacity:1"
       transform="matrix(0.35277776,0,0,-0.35277776,188.61551,159.5112)"
       clip-path="url(#clipPath982)" />
    <path
       id="path983"
       d="M 0,0 C -8.106,0.195 -7.744,18.751 0,18.557 7.795,18.362 7.795,6.446 0,6.251"
       style="fill:none;fill-opacity:1;stroke:#0e0e0e;stroke-width:3;stroke-linecap:butt;stroke-linejoin:miter;stroke-miterlimit:10;stroke-dasharray:none;stroke-opacity:1"
       transform="matrix(0.35277776,0,0,-0.35277776,188.61551,157.30614)"
       clip-path="url(#clipPath984)" />
    <path
       id="path985"
       d="M 0,0 C -8.106,0.195 -7.744,18.751 0,18.557 7.795,18.362 7.795,6.446 0,6.251"
       style="fill:none;fill-opacity:1;stroke:#0e0e0e;stroke-width:3;stroke-linecap:butt;stroke-linejoin:miter;stroke-miterlimit:10;stroke-dasharray:none;stroke-opacity:1"
       transform="matrix(0.35277776,0,0,-0.35277776,188.61551,155.10102)"
       clip-path="url(#clipPath986)" />
    <path
       id="path987"
       d="M 0,0 C -8.106,0.195 -7.744,18.751 0,18.557 7.795,18.361 7.795,6.446 0,6.251"
       style="fill:none;fill-opacity:1;stroke:#0e0e0e;stroke-width:3;stroke-linecap:butt;stroke-linejoin:miter;stroke-miterlimit:10;stroke-dasharray:none;stroke-opacity:1"
       transform="matrix(0.35277776,0,0,-0.35277776,188.61551,152.89593)"
       clip-path="url(#clipPath988)" />
    <path
       id="path989"
       d="M 0,0 C -8.106,0.195 -7.744,18.751 0,18.557 7.795,18.361 7.795,6.446 0,6.251"
       style="fill:none;fill-opacity:1;stroke:#0e0e0e;stroke-width:3;stroke-linecap:butt;stroke-linejoin:miter;stroke-miterlimit:10;stroke-dasharray:none;stroke-opacity:1"
       transform="matrix(0.35277776,0,0,-0.35277776,188.61551,150.69079)"
       clip-path="url(#clipPath990)" />
    <path
       id="path991"
       d="M 0,0 C -8.106,0.195 -7.744,18.751 0,18.557 7.795,18.361 7.795,6.446 0,6.251"
       style="fill:none;fill-opacity:1;stroke:#0e0e0e;stroke-width:3;stroke-linecap:butt;stroke-linejoin:miter;stroke-miterlimit:10;stroke-dasharray:none;stroke-opacity:1"
       transform="matrix(0.35277776,0,0,-0.35277776,188.61551,148.48567)"
       clip-path="url(#clipPath992)" />
    <path
       id="path993"
       d="M 0,0 C -8.106,0.195 -7.744,18.751 0,18.557 7.795,18.361 7.795,6.446 0,6.251"
       style="fill:none;fill-opacity:1;stroke:#0e0e0e;stroke-width:3;stroke-linecap:butt;stroke-linejoin:miter;stroke-miterlimit:10;stroke-dasharray:none;stroke-opacity:1"
       transform="matrix(0.35277776,0,0,-0.35277776,188.61551,146.28056)"
       clip-path="url(#clipPath994)" />
    <path
       id="path995"
       d="M 0,0 C -8.106,0.195 -7.744,18.751 0,18.557"
       style="fill:none;fill-opacity:1;stroke:#0e0e0e;stroke-width:3;stroke-linecap:butt;stroke-linejoin:miter;stroke-miterlimit:10;stroke-dasharray:none;stroke-opacity:1"
       transform="matrix(0.35277776,0,0,-0.35277776,188.61551,144.07541)"
       clip-path="url(#clipPath996)" />
  </g>
</svg>
